Coordinates
version=1
nRows=12
nColumns=34
inDegrees=yes

Units are S.I. units (second, meters, Newtons, ...)
Angles are in degrees.

endheader
time	pelvis_tilt	pelvis_list	pelvis_rotation	pelvis_tx	pelvis_ty	pelvis_tz	hip_flexion_r	hip_adduction_r	hip_rotation_r	knee_angle_r	ankle_angle_r	subtalar_angle_r	mtp_angle_r	hip_flexion_l	hip_adduction_l	hip_rotation_l	knee_angle_l	socket_flexion	socket_adduction	socket_rotation	socket_tx	socket_ty	socket_tz	pros_ankle_rx	pros_ankle_ry	pros_ankle_rz	pros_ankle_tx	pros_ankle_ty	pros_ankle_tz	foot_flex	lumbar_extension	lumbar_bending	lumbar_rotation
      0.90000000	      2.58653750	     -8.36733804	     11.28310365	      0.41269386	      1.04237068	      0.36546269	      9.28602603	      8.55401678	    -17.80362996	    -18.21224391	      9.29487137	     14.57142735	     13.46838658	     18.59428954	    -11.70560267	      7.83468064	    -57.07838653	     23.99515048	     -0.05689787	     -8.26368037	      0.00000000	      0.00456965	      0.00000000	      0.00000000	      0.00000000	      0.00000000	      0.00000000	      0.00000000	      0.00000000	     10.22827818	    -11.37602764	      7.20368924	    -27.02913813
      0.90416667	      2.53425164	     -8.19403161	     11.22930472	      0.41807298	      1.04352972	      0.36551821	      8.76561650	      8.47920623	    -17.79175768	    -17.82457581	      9.38382923	     14.69627554	     13.52582352	     19.10881355	    -11.37116822	      7.93814692	    -56.82958237	     23.79359879	      0.20848569	     -7.86734958	      0.00000000	      0.00447664	      0.00000000	      0.00000000	      0.00000000	      0.00000000	      0.00000000	      0.00000000	      0.00000000	     10.16415566	    -11.40433283	      6.93437362	    -26.94961616
      0.90833333	      2.81621096	     -7.98125854	     11.36873185	      0.42378033	      1.04537563	      0.36530398	      7.53851355	      8.50640996	    -17.91826062	    -16.77246052	      9.07742287	     14.92735604	     14.01617611	     19.17364035	    -11.05106923	      8.13824686	    -56.52711921	     23.35598994	      0.52033224	     -7.48814795	      0.00000000	      0.00400422	      0.00000000	      0.00000000	      0.00000000	      0.00000000	      0.00000000	      0.00000000	      0.00000000	     10.01621762	    -11.73480573	      6.78483645	    -27.07437296
      0.91250000	      2.75198764	     -7.78932100	     11.28320365	      0.42918659	      1.04650155	      0.36542135	      7.00670012	      8.42118510	    -17.86149515	    -16.34075887	      9.03159506	     15.10778683	     14.08822062	     19.62900747	    -10.70083057	      8.23014377	    -56.17960745	     23.10569959	      0.81131504	     -7.13121313	      0.00000000	      0.00369102	      0.00000000	      0.00000000	      0.00000000	      0.00000000	      0.00000000	      0.00000000	      0.00000000	      9.87552841	    -11.63424651	      6.48213440	    -26.94489284
      0.91666667	      2.67003908	     -7.64198410	     11.18275754	      0.43436606	      1.04750658	      0.36548349	      6.63772668	      8.33350061	    -17.84101029	    -16.14643896	      9.09533420	     15.17621009	     14.10875587	     20.14556949	    -10.39279229	      8.27688246	    -55.82249838	     22.86759552	      1.04176075	     -6.73093812	      0.00000000	      0.00364897	      0.00000000	      0.00000000	      0.00000000	      0.00000000	      0.00000000	      0.00000000	      0.00000000	      9.78845386	    -11.73618046	      6.38457227	    -26.88631479
      0.92083333	      2.88309902	     -7.44488149	     11.30017853	      0.44017332	      1.04919163	      0.36539820	      5.40115031	      8.40767510	    -17.90207469	    -14.93067188	      8.67946297	     15.46475584	     14.35158161	     20.22938215	    -10.09266877	      8.47293261	    -55.35535049	     22.46673483	      1.34556402	     -6.33505555	      0.00000000	      0.00316640	      0.00000000	      0.00000000	      0.00000000	      0.00000000	      0.00000000	      0.00000000	      0.00000000	      9.61746476	    -11.84610837	      6.03197031	    -26.89955883
      0.92500000	      2.80650450	     -7.27851782	     11.20496220	      0.44542836	      1.05020977	      0.36549386	      4.95075015	      8.32560246	    -17.84061299	    -14.60768460	      8.76951393	     15.55825325	     14.40136482	     20.67704432	     -9.77313119	      8.54073396	    -54.90146756	     22.18123822	      1.61433730	     -5.96987532	      0.00000000	      0.00299625	      0.00000000	      0.00000000	      0.00000000	      0.00000000	      0.00000000	      0.00000000	      0.00000000	      9.48430488	    -11.82913097	      5.74437301	    -26.80427506
      0.92916667	      2.72508550	     -7.14744888	     11.07962803	      0.45054004	      1.05115127	      0.36551643	      4.60458009	      8.24133885	    -17.81031786	    -14.44326334	      8.79449709	     15.62674774	     14.41789819	     21.11230390	     -9.47898081	      8.58701551	    -54.41240471	     21.86488585	      1.81858812	     -5.66081473	      0.00000000	      0.00282183	      0.00000000	      0.00000000	      0.00000000	      0.00000000	      0.00000000	      0.00000000	      0.00000000	      9.39791996	    -11.89733834	      5.70531099	    -26.74981740
      0.93333333	      2.67223712	     -6.90042721	     11.02057117	      0.45630620	      1.05233006	      0.36567410	      3.81077393	      8.16098400	    -17.73941042	    -13.58475810	      8.64455689	     15.94225056	     14.47365146	     21.38607586	     -9.12301290	      8.67107605	    -53.79674967	     21.50187006	      2.18709783	     -5.36448641	      0.00000000	      0.00247900	      0.00000000	      0.00000000	      0.00000000	      0.00000000	      0.00000000	      0.00000000	      0.00000000	      9.20599500	    -11.66953104	      5.16229174	    -26.58801339
      0.93750000	      2.67790364	     -6.75010161	     10.95801976	      0.46162688	      1.05343660	      0.36570451	      3.16872649	      8.13863749	    -17.71064739	    -13.04345000	      8.50503401	     16.11186514	     14.53235650	     21.66723154	     -8.84338557	      8.73666413	    -53.20019348	     21.13632929	      2.39822408	     -5.03224600	      0.00000000	      0.00218767	      0.00000000	      0.00000000	      0.00000000	      0.00000000	      0.00000000	      0.00000000	      0.00000000	      9.03805651	    -11.71138048	      4.93131351	    -26.50705808
      0.94166667	      3.12441334	     -6.53750068	     11.01859643	      0.46720603	      1.05536204	      0.36571674	      1.66312548	      8.27833706	    -17.58404636	    -11.74479628	      7.91364291	     16.03696484	     14.91566034	     21.37649408	     -8.59909704	      8.67783033	    -52.52504612	     20.60134453	      2.37618770	     -4.62469486	      0.00000000	      0.00172436	      0.00000000	      0.00000000	      0.00000000	      0.00000000	      0.00000000	      0.00000000	      0.00000000	      8.84049283	    -12.26892512	      4.78811823	    -26.54081420
      0.94583333	      3.01783661	     -6.38823157	     10.87324515	      0.47249208	      1.05620877	      0.36583480	      1.22378236	      8.20332557	    -17.46985479	    -11.37444768	      7.86368848	     16.15027301	     14.98496942	     21.72666558	     -8.32319669	      8.71421770	    -51.87365231	     20.19995335	      2.62703095	     -4.40152869	      0.00000000	      0.00144074	      0.00000000	      0.00000000	      0.00000000	      0.00000000	      0.00000000	      0.00000000	      0.00000000	      8.67968328	    -12.16992459	      4.51785359	    -26.40533875
